<svg width="35" height="35" viewBox="0 0 35 35" fill="none" xmlns="http://www.w3.org/2000/svg">
<g clip-path="url(#clip0_2_29)">
<path d="M34.6589 17.9031C34.6589 16.7135 34.5624 15.5175 34.3566 14.3472H17.8501V21.0861H27.3026C26.9104 23.2595 25.65 25.1822 23.8045 26.4039V30.7765H29.4439C32.7555 27.7286 34.6589 23.2274 34.6589 17.9031Z" fill="#4285F4"/>
<path d="M17.8499 35.0012C22.5697 35.0012 26.55 33.4515 29.4501 30.7765L23.8107 26.4039C22.2417 27.4714 20.2162 28.0758 17.8563 28.0758C13.2908 28.0758 9.41977 24.9957 8.03083 20.8546H2.21143V25.3622C5.18221 31.2717 11.2331 35.0012 17.8499 35.0012Z" fill="#34A853"/>
<path d="M8.02463 20.8546C7.29158 18.6811 7.29158 16.3277 8.02463 14.1542V9.64661H2.21166C-0.270424 14.5915 -0.270424 20.4173 2.21166 25.3622L8.02463 20.8546Z" fill="#FBBC04"/>
<path d="M17.8499 6.92659C20.3448 6.88801 22.7562 7.82683 24.5631 9.55014L29.5594 4.55382C26.3957 1.58303 22.1967 -0.0502629 17.8499 0.0011793C11.2331 0.0011793 5.18221 3.73074 2.21143 9.6466L8.0244 14.1542C9.40691 10.0067 13.2844 6.92659 17.8499 6.92659Z" fill="#EA4335"/>
</g>
<defs>
<clipPath id="clip0_2_29">
<rect width="35" height="35" fill="white"/>
</clipPath>
</defs>
</svg>
