<svg width="22" height="21" viewBox="0 0 22 21" fill="none" xmlns="http://www.w3.org/2000/svg">
<path d="M6.66603 20.6569C14.6649 20.6569 19.04 12.8409 19.04 6.06294C19.04 5.84094 19.04 5.61994 19.0273 5.39994C19.8784 4.67385 20.6131 3.77482 21.197 2.74494C20.4034 3.15994 19.5613 3.43198 18.6992 3.55194C19.6071 2.91099 20.2866 1.90276 20.6111 0.71494C19.7575 1.31245 18.8235 1.73351 17.8496 1.95994C17.1939 1.13762 16.3267 0.593108 15.3821 0.410653C14.4376 0.228198 13.4684 0.417976 12.6246 0.95062C11.7807 1.48326 11.1092 2.32908 10.714 3.35718C10.3188 4.38528 10.2219 5.53834 10.4383 6.63794C8.70923 6.53565 7.01776 6.00568 5.47365 5.08244C3.92953 4.15921 2.56728 2.86334 1.47531 1.27894C0.91918 2.4081 0.748848 3.7448 0.998997 5.01688C1.24915 6.28896 1.90097 7.40077 2.82175 8.12594C2.12962 8.10202 1.45257 7.88181 0.84788 7.48394V7.54894C0.848155 8.73316 1.19573 9.88081 1.83166 10.7972C2.46759 11.7137 3.35271 12.3425 4.33691 12.5769C3.69665 12.7829 3.02488 12.813 2.37322 12.6649C2.65123 13.684 3.19229 14.5752 3.92077 15.2138C4.64925 15.8525 5.52873 16.2067 6.43626 16.2269C5.53457 17.0629 4.50199 17.6809 3.39759 18.0457C2.29319 18.4105 1.13865 18.5149 0 18.3529C1.98884 19.8582 4.30293 20.6566 6.66603 20.6529" fill="#1DA1F2"/>
</svg>
