<svg width="35" height="35" viewBox="0 0 35 35" fill="none" xmlns="http://www.w3.org/2000/svg">
<path d="M35 17.5C35 7.83501 27.165 0 17.5 0C7.83501 0 0 7.83501 0 17.5C0 26.2346 6.39946 33.4746 14.7656 34.7874V22.5586H10.3223V17.5H14.7656V13.6445C14.7656 9.25859 17.3783 6.83594 21.3756 6.83594C23.2897 6.83594 25.293 7.17773 25.293 7.17773V11.4844H23.0863C20.9125 11.4844 20.2344 12.8334 20.2344 14.2188V17.5H25.0879L24.312 22.5586H20.2344V34.7874C28.6005 33.4746 35 26.2346 35 17.5Z" fill="#1877F2"/>
<path d="M24.312 22.5586L25.0879 17.5H20.2344V14.2188C20.2344 12.8348 20.9125 11.4844 23.0863 11.4844H25.293V7.17773C25.293 7.17773 23.2904 6.83594 21.3756 6.83594C17.3783 6.83594 14.7656 9.25859 14.7656 13.6445V17.5H10.3223V22.5586H14.7656V34.7874C16.5775 35.0709 18.4225 35.0709 20.2344 34.7874V22.5586H24.312Z" fill="white"/>
</svg>
