<svg width="35" height="35" viewBox="0 0 35 35" fill="none" xmlns="http://www.w3.org/2000/svg">
<path d="M0 16.8C0 8.88038 0 4.92061 2.4603 2.4603C4.92061 0 8.88038 0 16.8 0H18.2C26.1196 0 30.0794 0 32.5397 2.4603C35 4.92061 35 8.88038 35 16.8V18.2C35 26.1196 35 30.0794 32.5397 32.5397C30.0794 35 26.1196 35 18.2 35H16.8C8.88038 35 4.92061 35 2.4603 32.5397C0 30.0794 0 26.1196 0 18.2V16.8Z" fill="#0077FF"/>
<path d="M18.6228 25.2147C10.6458 25.2147 6.09583 19.7459 5.90625 10.6459H9.90208C10.0333 17.3251 12.9791 20.1543 15.3124 20.7376V10.6459H19.0751V16.4064C21.3792 16.1584 23.7998 13.5334 24.6164 10.6459H28.379C27.7519 14.2043 25.1269 16.8293 23.2603 17.9084C25.1269 18.7834 28.1167 21.073 29.2542 25.2147H25.1124C24.2228 22.4439 22.0063 20.3001 19.0751 20.0084V25.2147H18.6228Z" fill="white"/>
</svg>
